<svg width="50" height="50" fill="none" stroke="#000000" stroke-linecap="round" stroke-linejoin="round" stroke-width="2" viewBox="0 0 24 24" xmlns="http://www.w3.org/2000/svg">
  <path d="M9 6a1 1 0 1 0 0-2 1 1 0 0 0 0 2Z"></path>
  <path d="M9 13a1 1 0 1 0 0-2 1 1 0 0 0 0 2Z"></path>
  <path d="M9 20a1 1 0 1 0 0-2 1 1 0 0 0 0 2Z"></path>
  <path d="M15 6a1 1 0 1 0 0-2 1 1 0 0 0 0 2Z"></path>
  <path d="M15 13a1 1 0 1 0 0-2 1 1 0 0 0 0 2Z"></path>
  <path d="M15 20a1 1 0 1 0 0-2 1 1 0 0 0 0 2Z"></path>
</svg>